# xmcd
#
# Track frame offsets:
#	150
#	20314
#	36861
#	52696
#	70633
#	88476
#	106215
#	121406
#	134921
#	147089
#	162383
#	177051
#	191111
#	207890
#	224060
#
# Disc length: 3166 seconds
#
# Revision: 0
# Processed by: cddbd v1.5.1PL2 Copyright (c) Steve Scherf et al.
# Submitted via: dBpowerAMP V4.0
#
DISCID=df0c5c0f
DTITLE=Johnny Cash - American Iv: The Man Comes Around
DYEAR=2002
DGENRE=American Recordings
TTITLE0=The Man Comes Around
TTITLE1=Hurt
TTITLE2=Give my Love to Rose
TTITLE3=Bridge Over Troubled Water
TTITLE4=I Hung my Head
TTITLE5=First Time Ever I Saw Your Face
TTITLE6=Personal Jesus
TTITLE7=In my Life
TTITLE8=Sam Hall
TTITLE9=Danny Boy
TTITLE10=Desperado
TTITLE11=I'm so Lonesome I Could Cry
TTITLE12=Tear Stained Letter
TTITLE13=Streets of Laredo
TTITLE14=We'll Meet Again
EXTD=
EXTT0=
EXTT1=
EXTT2=
EXTT3=
EXTT4=
EXTT5=
EXTT6=
EXTT7=
EXTT8=
EXTT9=
EXTT10=
EXTT11=
EXTT12=
EXTT13=
EXTT14=
PLAYORDER=
